<svg width="24" height="24" viewBox="0 0 24 24" fill="none" xmlns="http://www.w3.org/2000/svg">
<path fill-rule="evenodd" clip-rule="evenodd" d="M15.2454 13.1299C16.4908 14.0599 17.3635 15.3199 17.3635 16.9999V19.9999H20.0908C20.5908 19.9999 20.9999 19.5499 20.9999 18.9999V16.9999C20.9999 14.8199 17.7545 13.5299 15.2454 13.1299Z" fill="black"/>
<path d="M8.27211 12C10.2804 12 11.9085 10.2091 11.9085 8C11.9085 5.79086 10.2804 4 8.27211 4C6.2638 4 4.63574 5.79086 4.63574 8C4.63574 10.2091 6.2638 12 8.27211 12Z" fill="black"/>
<path fill-rule="evenodd" clip-rule="evenodd" d="M13.7264 12C15.7355 12 17.3628 10.21 17.3628 8C17.3628 5.79 15.7355 4 13.7264 4C13.2992 4 12.8992 4.1 12.5173 4.24C13.2719 5.27 13.7264 6.58 13.7264 8C13.7264 9.42 13.2719 10.73 12.5173 11.76C12.8992 11.9 13.2992 12 13.7264 12Z" fill="black"/>
<path fill-rule="evenodd" clip-rule="evenodd" d="M8.27248 13C5.84521 13 0.999756 14.34 0.999756 17V19C0.999756 19.55 1.40885 20 1.90885 20H14.6361C15.1361 20 15.5452 19.55 15.5452 19V17C15.5452 14.34 10.6998 13 8.27248 13Z" fill="black"/>
</svg>
