<svg width="24" height="24" viewBox="0 0 24 24" fill="none" xmlns="http://www.w3.org/2000/svg">
<g clip-path="url(#clip0_776_4096)">
<path d="M19.7091 1.36315L15.3455 5.72678C15.2364 5.83588 15.1818 5.96678 15.1818 6.11951V15.0322C15.1818 15.5013 15.7382 15.7522 16.0873 15.4359L20.4509 11.5086C20.5709 11.4104 20.6364 11.2577 20.6364 11.105V1.75588C20.6364 1.26497 20.0473 1.02497 19.7091 1.36315ZM24.4218 5.56315C23.9091 5.30133 23.3745 5.08315 22.8182 4.89769V18.0213C21.5745 17.5741 20.2982 17.345 19 17.345C16.9273 17.345 14.8764 17.9341 13 19.0686V5.8686C11.2327 4.85406 9.19273 4.25406 7 4.25406C5.04727 4.25406 3.20364 4.73406 1.57818 5.56315C1.21818 5.73769 1 6.11951 1 6.52315V19.7013C1 20.5304 1.88364 21.0431 2.61455 20.6504C3.93455 19.9631 5.41818 19.5268 7 19.5268C9.25818 19.5268 11.3418 20.4213 13 21.7086C14.6582 20.4213 16.7418 19.5268 19 19.5268C20.5818 19.5268 22.0655 19.9631 23.3855 20.6613C24.1164 21.0541 25 20.5413 25 19.7122V6.52315C25 6.11951 24.7818 5.73769 24.4218 5.56315Z" fill="white"/>
</g>
<defs>
<clipPath id="clip0_776_4096">
<rect width="24" height="24" fill="white"/>
</clipPath>
</defs>
</svg>
