<svg width="24" height="24" viewBox="0 0 24 24" fill="none" xmlns="http://www.w3.org/2000/svg">
<path fill-rule="evenodd" clip-rule="evenodd" d="M12 6.85714C13.8937 6.85714 15.4286 5.32225 15.4286 3.42857C15.4286 1.5349 13.8937 0 12 0C10.1063 0 8.57143 1.5349 8.57143 3.42857C8.57143 5.32225 10.1063 6.85714 12 6.85714ZM24 12V13.7143C24 14.6611 23.2326 15.4286 22.2857 15.4286V10.2857C23.2326 10.2857 24 11.0532 24 12ZM0 13.7143V12C0 11.0532 0.767449 10.2857 1.71429 10.2857V15.4286C0.767449 15.4286 0 14.6611 0 13.7143ZM22.2857 15.4286V20.5714C15.4286 20.5714 12 24 12 24C12 24 8.57143 20.5714 1.71429 20.5714V15.4286C2.65922 15.4286 3.42857 14.6611 3.42857 13.7143C3.42857 12.7693 2.66112 12 1.71429 11.9931V6.85714C8.57143 6.85714 12 10.2857 12 10.2857C12 10.2857 15.4286 6.85714 22.2857 6.85714V12C21.3408 12 20.5714 12.7674 20.5714 13.7143C20.5714 14.6592 21.3389 15.4286 22.2857 15.4286Z" fill="url(#paint0_linear_2866_1617)"/>
<defs>
<linearGradient id="paint0_linear_2866_1617" x1="0.228404" y1="0.000165713" x2="24.0599" y2="0.0597896" gradientUnits="userSpaceOnUse">
<stop stop-color="#8C52C6"/>
<stop offset="1" stop-color="#683799"/>
</linearGradient>
</defs>
</svg>
