<svg width="40" height="40" viewBox="0 0 40 40" fill="none" xmlns="http://www.w3.org/2000/svg">
<path d="M29.4662 22.1365C28.3696 20.0362 26.9388 10.5148 26.7939 8.00061C22.3106 9.25603 20.4536 16.0313 20.4536 16.0313C20.4536 16.0313 20.785 24.5291 20.8849 29.3784C21.79 25.0111 26.8457 23.0384 29.4662 22.1371L29.4662 22.1365Z" fill="url(#paint0_linear_2866_1642)"/>
<path d="M30.2647 10.9578C29.6228 11.2377 28.2487 11.6811 28.2487 11.6811C28.2487 11.6811 30.6563 21.711 31.2785 23.0597C28.5613 24.1758 20.4379 27.0434 21.583 31.9999C22.285 30.5685 22.8864 26.1722 34.9997 26.1722C34.1404 24.0464 30.7692 14.1596 30.2652 10.9575L30.2647 10.9578Z" fill="url(#paint0_linear_2866_1642)"/>
<path d="M13.2049 8.00059C13.0602 10.515 11.6292 20.0368 10.5298 22.1365C13.1526 23.0378 18.2111 25.0109 19.1118 29.3778C19.2138 24.5286 19.5475 16.0306 19.5475 16.0306C19.5475 16.0306 17.6862 9.25542 13.2049 8L13.2049 8.00059Z" fill="url(#paint0_linear_2866_1642)"/>
<path d="M8.71899 23.0589C9.33996 21.7102 11.7475 11.6803 11.7475 11.6803C11.7475 11.6803 10.3734 11.2368 9.73394 10.957C9.22702 14.1598 5.85713 24.0468 5 26.1717C17.1123 26.1717 17.7149 30.5688 18.4154 31.9993C19.5569 27.0437 11.4371 24.1749 8.71912 23.0592L8.71899 23.0589Z" fill="url(#paint0_linear_2866_1642)"/>
<defs>
<linearGradient id="paint0_linear_2866_1642" x1="0.228404" y1="0.000165713" x2="24.0599" y2="0.0597896" gradientUnits="userSpaceOnUse">
<stop stop-color="#8C52C6"/>
<stop offset="1" stop-color="#683799"/>
</linearGradient>
</defs>
</svg>
