<svg width="24" height="24" viewBox="0 0 24 24" fill="none" xmlns="http://www.w3.org/2000/svg">
<path d="M12 0C18.6377 0 24 5.36229 24 12C24 18.6377 18.6377 24 12 24C5.36229 24 0 18.6377 0 12C0 5.36229 5.36229 0 12 0ZM18.5721 6.801L8.95929 15.1714L5.49339 11.215C5.06833 10.7245 3.85847 11.7708 4.28353 12.2613C5.72224 13.8963 7.12817 15.531 8.56689 17.1333C8.73045 17.3295 9.0246 17.3622 9.2208 17.1988L19.6839 8.07623C20.2071 7.61851 19.0953 6.34317 18.5722 6.80106L18.5721 6.801Z" fill="url(#paint0_linear_2866_1642)"/>
<defs>
<linearGradient id="paint0_linear_2866_1642" x1="0.228404" y1="0.000165713" x2="24.0599" y2="0.0597896" gradientUnits="userSpaceOnUse">
<stop stop-color="#8C52C6"/>
<stop offset="1" stop-color="#683799"/>
</linearGradient>
</defs>
</svg>
