<svg width="24" height="24" viewBox="0 0 24 24" fill="none" xmlns="http://www.w3.org/2000/svg">
<path d="M10.8854 12.9767L11.306 10.9789C10.4524 10.2664 9.98242 9.28655 9.98242 8.26858C9.98242 6.16899 12.0111 4.45117 14.4975 4.45117C16.9839 4.45117 19.0001 6.15628 19.0001 8.25578C19.0001 10.3553 16.9714 12.0732 14.485 12.0732C14.0273 12.0732 13.3346 11.8696 12.8275 11.7169C12.8027 11.7042 12.778 11.7042 12.7533 11.6914L10.8854 12.9767ZM14.4849 5.10023C12.3326 5.10023 10.5885 6.5254 10.5885 8.28155C10.5885 9.15957 11.0338 9.99936 11.8255 10.6101L11.9863 10.7374L11.8008 11.6027L12.6419 11.03L12.778 11.0682C12.8398 11.0809 12.914 11.1064 13.0006 11.1318C13.4212 11.2591 14.1139 11.4627 14.485 11.4627C16.6374 11.4627 18.3814 10.0375 18.3814 8.28137C18.3814 6.52522 16.6373 5.10006 14.485 5.10006L14.4849 5.10023Z" fill="#07ED02"/>
<path d="M12.3325 8.58625C12.0604 8.58625 11.8501 8.3572 11.8501 8.09C11.8501 7.82279 12.0728 7.59375 12.3325 7.59375C12.5923 7.59375 12.8149 7.82279 12.8149 8.09C12.8149 8.3572 12.6046 8.58625 12.3325 8.58625Z" fill="#07ED02"/>
<path d="M14.6704 8.58625C14.3983 8.58625 14.188 8.3572 14.188 8.09C14.188 7.82279 14.4106 7.59375 14.6704 7.59375C14.9425 7.59375 15.1528 7.82279 15.1528 8.09C15.1528 8.3572 14.9425 8.58625 14.6704 8.58625Z" fill="#07ED02"/>
<path d="M17.0088 8.58625C16.7366 8.58625 16.5264 8.3572 16.5264 8.09C16.5264 7.82279 16.749 7.59375 17.0088 7.59375C17.2809 7.59375 17.4912 7.82279 17.4912 8.09C17.4912 8.3572 17.2809 8.58625 17.0088 8.58625Z" fill="#07ED02"/>
<path d="M16.155 12.747C16.155 12.747 16.2292 12.5052 16.3034 12.0981C15.7468 12.3017 15.1283 12.4035 14.4851 12.4035C14.0398 12.4035 13.446 12.238 12.8152 12.0599L10.4278 13.6759L10.9597 11.0928C10.1309 10.3293 9.66085 9.32411 9.66085 8.26795C9.66085 6.44833 11.0463 4.89584 12.976 4.34875C12.778 4.25967 12.5554 4.18333 12.3203 4.1197C12.1719 4.09425 11.9616 4.05608 11.7142 4.03063C10.6009 3.91611 9.47526 4.1197 8.5351 4.69231C7.39708 5.37945 6.84043 6.42287 6.55594 6.97002C5.72718 8.49698 5.6777 9.97304 5.70241 10.6856V10.6983L5.03444 12.6325C4.91074 12.9888 5.1334 13.3705 5.49214 13.4341L5.82611 13.485C5.83848 13.485 5.85085 13.4978 5.86322 13.5105V13.5232C5.62819 15.6228 5.96217 16.3226 6.35801 16.5643C6.46934 16.628 6.58066 16.6534 7.18677 16.9588C7.44653 17.086 7.78052 17.2642 8.15161 17.5696C8.17635 17.5823 8.18872 17.595 8.20109 17.6077L8.25057 19.9618C8.25057 19.9873 8.26294 20 8.28768 20H16.0064C16.0312 20 16.0559 19.9746 16.0435 19.9491C15.9198 19.631 15.7714 19.1856 15.6106 18.6639C15.4498 18.2567 15.2395 17.6587 15.1529 16.9206C15.1282 16.7552 15.0787 16.2971 15.1158 15.7881C15.2148 14.5029 15.7714 14.0066 16.1549 12.747L16.155 12.747Z" fill="#07ED02"/>
</svg>
