<svg width="24" height="24" viewBox="0 0 24 24" fill="none" xmlns="http://www.w3.org/2000/svg">
<path d="M13.5279 5.68926C13.5714 6.66491 12.8215 7.49139 11.8531 7.53509C10.8848 7.57879 10.0645 6.8234 10.0211 5.84763C9.9777 4.87198 10.7275 4.04562 11.6958 4.0018C12.6643 3.9581 13.4845 4.71361 13.5279 5.68926Z" fill="#11D1C5"/>
<path d="M14.4993 9.08579L18.0933 8.17639C18.5279 8.07536 18.7787 7.62061 18.6784 7.19957C18.5781 6.76171 18.1268 6.50903 17.7089 6.61005L7.37835 9.22055C6.94377 9.32158 6.69297 9.77633 6.79323 10.1974C6.87684 10.5679 7.21113 10.8037 7.56223 10.8037C7.62904 10.8037 7.69597 10.8037 7.76279 10.7869L11.1394 9.92798L11.8415 12.6394C11.9083 12.892 11.8916 13.1784 11.7914 13.4309L9.61824 18.7193C9.41769 19.1908 9.65171 19.7298 10.1198 19.9319C10.2368 19.9824 10.3538 19.9992 10.4709 19.9992C10.8386 19.9992 11.1729 19.7802 11.3233 19.4266L13.4965 14.1383C13.5131 14.0878 13.5299 14.0372 13.5466 13.9867L13.3627 19.0393C13.346 19.5445 13.7471 19.9824 14.2487 19.9993H14.2821C14.7668 19.9993 15.1847 19.612 15.2015 19.1067L15.4021 13.431C15.4188 13.1615 15.3854 12.892 15.3185 12.6226L14.4993 9.08579Z" fill="#11D1C5"/>
<path d="M16.6551 9.32233C16.4712 9.42336 16.4044 9.65914 16.5213 9.8444C16.9894 10.6697 17.006 11.7644 16.9894 12.1854C16.9894 12.4044 17.1398 12.5727 17.3571 12.5896H17.3738C17.5744 12.5896 17.7415 12.4212 17.7582 12.2191C17.7749 11.7308 17.7582 10.4844 17.1899 9.47388C17.073 9.28861 16.8389 9.2213 16.6551 9.32233L16.6551 9.32233Z" fill="#11D1C5"/>
<path d="M18.4771 9.17114C18.3769 8.98588 18.1428 8.91856 17.959 9.01959C17.7751 9.12063 17.7083 9.3564 17.8085 9.54166C18.0259 9.94589 18.1763 10.4511 18.2431 11.0406C18.2598 11.2426 18.427 11.3774 18.6276 11.3774H18.661C18.8784 11.3606 19.0288 11.1584 18.9953 10.9563C18.9285 10.2826 18.7446 9.65949 18.4772 9.17114L18.4771 9.17114Z" fill="#11D1C5"/>
<path d="M8.68161 8.17766C8.74842 8.17766 8.79868 8.16086 8.86549 8.12714C9.04937 8.02611 9.13297 7.79034 9.0327 7.60508C8.83214 7.20085 8.69841 6.67875 8.66495 6.08938C8.64827 5.8704 8.46439 5.71886 8.26373 5.73564C8.04639 5.75244 7.89598 5.93771 7.91264 6.13988C7.96277 6.84723 8.11319 7.47032 8.364 7.9756C8.41425 8.09343 8.54788 8.17766 8.68163 8.17766L8.68161 8.17766Z" fill="#11D1C5"/>
<path d="M7.34441 8.5144C7.41122 8.5144 7.46148 8.4976 7.52829 8.46388C7.71217 8.36285 7.77899 8.12707 7.6955 7.94181C7.49483 7.5713 7.37775 7.11663 7.32763 6.57766C7.31095 6.35868 7.12707 6.20714 6.90973 6.22392C6.69238 6.24072 6.54197 6.42599 6.55863 6.64497C6.60877 7.28499 6.75919 7.84079 7.00999 8.29543C7.07692 8.4303 7.21067 8.51441 7.3444 8.51441L7.34441 8.5144Z" fill="#11D1C5"/>
<path d="M9.65132 12.3545C9.11635 11.9166 8.33082 11.984 7.84599 12.4892L7.56183 12.7755L7.2442 12.4555C6.69257 11.8997 5.78993 11.9334 5.28842 12.5565C4.85384 13.0955 4.92067 13.887 5.42217 14.3755L7.31111 16.2786C7.46153 16.4301 7.69555 16.4301 7.84608 16.2786L9.76836 14.3419C10.3032 13.786 10.2699 12.8596 9.6513 12.3545L9.65132 12.3545Z" fill="#11D1C5"/>
</svg>
