<svg width="24" height="24" viewBox="0 0 24 24" fill="none" xmlns="http://www.w3.org/2000/svg">
<path d="M9.04837 17.9999H7.21935C6.89596 17.9999 6.58581 17.8735 6.35714 17.6485C6.12847 17.4234 6 17.1182 6 16.7999V12.6C6 12.2817 6.12847 11.9765 6.35714 11.7514C6.58581 11.5264 6.89596 11.4 7.21935 11.4H9.04837M13.3161 10.2V7.79999C13.3161 7.3226 13.1234 6.86477 12.7804 6.5272C12.4374 6.18964 11.9722 6 11.4871 6L9.04837 11.4V17.9999H15.9255C16.2196 18.0032 16.5049 17.9018 16.729 17.7143C16.9531 17.5269 17.1007 17.2661 17.1448 16.9799L17.9862 11.58C18.0127 11.408 18.0009 11.2324 17.9516 11.0653C17.9024 10.8983 17.8168 10.7437 17.7008 10.6125C17.5848 10.4812 17.4412 10.3763 17.2799 10.3051C17.1187 10.2339 16.9436 10.198 16.7668 10.2H13.3161Z" stroke="#171717" stroke-linecap="round" stroke-linejoin="round"/>
</svg>
