<svg width="24" height="24" viewBox="0 0 24 24" fill="none" xmlns="http://www.w3.org/2000/svg">
<path fill-rule="evenodd" clip-rule="evenodd" d="M4.47053 4H11.0587C11.3186 4 11.5293 4.21071 11.5293 4.47053V11.0587C11.5293 11.3186 11.3186 11.5293 11.0587 11.5293H4.47053C4.21072 11.5293 4 11.3186 4 11.0587V4.47053C4 4.21072 4.21071 4 4.47053 4V4ZM8.23531 8.23505H9.17646C9.30648 8.23505 9.41172 8.1297 9.41172 7.99979V7.52926C9.41172 7.39924 9.30648 7.29388 9.17646 7.29388H8.23531V6.35273C8.23531 6.22282 8.12995 6.11747 8.00005 6.11747H7.52951C7.39949 6.11747 7.29414 6.22282 7.29414 6.35273V7.29388H6.35299C6.22308 7.29388 6.11772 7.39924 6.11772 7.52926V7.99979C6.11772 8.1297 6.22308 8.23505 6.35299 8.23505H7.29414V9.1762C7.29414 9.30622 7.39949 9.41147 7.52951 9.41147H8.00005C8.12995 9.41147 8.23531 9.30622 8.23531 9.1762V8.23505ZM12.9412 4H19.5294C19.7892 4 19.9999 4.21071 19.9999 4.47053V11.0587C19.9999 11.3186 19.7892 11.5293 19.5294 11.5293H12.9412C12.6813 11.5293 12.4706 11.3186 12.4706 11.0587V4.47053C12.4706 4.21072 12.6813 4 12.9412 4V4ZM17.6471 7.52935C17.6471 7.39933 17.5418 7.29398 17.4117 7.29398H15.0589C14.929 7.29398 14.8236 7.39933 14.8236 7.52935V7.99989C14.8236 8.12979 14.929 8.23515 15.0589 8.23515H17.4117C17.5418 8.23515 17.6471 8.12979 17.6471 7.99989V7.52935ZM4.47082 12.4704H11.059C11.3189 12.4704 11.5296 12.6811 11.5296 12.941V19.5292C11.5296 19.789 11.3189 19.9997 11.059 19.9997H4.47082C4.211 19.9997 4.00029 19.789 4.00029 19.5292V12.941C4.00029 12.6811 4.211 12.4704 4.47082 12.4704ZM7.09945 16.2352L6.18687 17.1477C6.0949 17.2397 6.0949 17.3887 6.18687 17.4805L6.51957 17.8132C6.61142 17.9052 6.76042 17.9052 6.85237 17.8132L7.76495 16.9007L8.67753 17.8132C8.76938 17.9052 8.91837 17.9052 9.01024 17.8132L9.34303 17.4805C9.43488 17.3887 9.43488 17.2397 9.34303 17.1477L8.43045 16.2352L9.34303 15.3226C9.43488 15.2307 9.43488 15.0817 9.34303 14.9899L9.01024 14.6571C8.91839 14.5652 8.76939 14.5652 8.67753 14.6571L7.76495 15.5697L6.85237 14.6571C6.7604 14.5652 6.61141 14.5652 6.51957 14.6571L6.18687 14.9899C6.0949 15.0817 6.0949 15.2307 6.18687 15.3226L7.09945 16.2352ZM12.9413 12.4704H19.5295C19.7893 12.4704 20 12.6811 20 12.941V19.5292C20 19.789 19.7893 19.9997 19.5295 19.9997H12.9413C12.6814 19.9997 12.4707 19.789 12.4707 19.5292V12.941C12.4707 12.6811 12.6814 12.4704 12.9413 12.4704ZM17.6472 16.9409C17.6472 16.811 17.5419 16.7056 17.4118 16.7056H15.059C14.9291 16.7056 14.8237 16.811 14.8237 16.9409V17.4114C14.8237 17.5414 14.9291 17.6468 15.059 17.6468H17.4118C17.5419 17.6468 17.6472 17.5414 17.6472 17.4114V16.9409ZM17.6472 15.0585C17.6472 14.9286 17.5419 14.8233 17.4118 14.8233H15.059C14.9291 14.8233 14.8237 14.9286 14.8237 15.0585V15.5292C14.8237 15.6591 14.9291 15.7644 15.059 15.7644H17.4118C17.5419 15.7644 17.6472 15.6591 17.6472 15.5292V15.0585Z" fill="#FFB500"/>
</svg>
