<svg width="28" height="28" viewBox="0 0 24 24" fill="none" xmlns="http://www.w3.org/2000/svg">
<path d="M11.9998 22C13.0998 22 13.9998 21.1 13.9998 20H9.99981C9.99981 21.1 10.8898 22 11.9998 22ZM17.9998 16V11C17.9998 7.93 16.3598 5.36 13.4998 4.68V4C13.4998 3.17 12.8298 2.5 11.9998 2.5C11.1698 2.5 10.4998 3.17 10.4998 4V4.68C7.62981 5.36 5.99981 7.92 5.99981 11V16L4.70981 17.29C4.07981 17.92 4.51981 19 5.40981 19H18.5798C19.4698 19 19.9198 17.92 19.2898 17.29L17.9998 16Z" fill="white"/>
</svg>
