<svg width="24" height="24" viewBox="0 0 24 24" fill="none" xmlns="http://www.w3.org/2000/svg">
<path d="M14.7249 12.6374C14.2452 12.6374 13.8544 13.0234 13.8544 13.4968C13.8544 13.9668 14.2469 14.3528 14.7249 14.3528C15.2045 14.3528 15.5988 13.9686 15.5988 13.4968C15.5988 13.0216 15.2081 12.6374 14.7249 12.6374ZM12.0001 12.6374C11.5204 12.6374 11.1279 13.0234 11.1279 13.4968C11.1279 13.9668 11.5204 14.3528 12.0001 14.3528C12.4797 14.3528 12.8723 13.9686 12.8723 13.4968C12.8723 13.0216 12.4816 12.6374 12.0001 12.6374ZM9.27357 12.6374C8.79391 12.6374 8.40136 13.0234 8.40136 13.4968C8.40136 13.9668 8.7956 14.3528 9.27357 14.3528C9.75322 14.3528 10.1458 13.9686 10.1458 13.4968C10.1458 13.0216 9.75677 12.6374 9.27357 12.6374ZM19.9999 16.998C19.9999 18.0976 19.0841 19 17.9659 19H6.03402C4.91588 19 4 18.0976 4 16.998V8.56464H19.9998L19.9999 16.998ZM4.00012 7.99179V7.00028C4.00012 5.90069 4.91588 5 6.03415 5H17.966C19.0824 5 20 5.90056 20 7.00028V7.99179H4.00012ZM6.04462 6.20941C5.72361 6.20941 5.46372 6.46668 5.46372 6.78235C5.46372 7.09801 5.72364 7.3536 6.04462 7.3536C6.36562 7.3536 6.62551 7.098 6.62551 6.78235C6.62551 6.4667 6.36559 6.20941 6.04462 6.20941Z" fill="#0095FF"/>
</svg>
