<svg width="24" height="24" viewBox="0 0 24 24" fill="none" xmlns="http://www.w3.org/2000/svg">
<path d="M11.9998 22C9.34756 22 6.80376 20.9465 4.92874 19.071C3.05329 17.1958 1.99976 14.6521 1.99976 12C1.99976 9.3479 3.05324 6.804 4.92874 4.92899C6.804 3.05353 9.34765 2 11.9998 2C14.6519 2 17.1958 3.05349 19.0708 4.92899C20.9462 6.80425 21.9998 9.3479 21.9998 12C21.9998 13.7554 21.5377 15.4799 20.6601 17C19.7823 18.5201 18.5199 19.7825 16.9998 20.6603C15.4795 21.5379 13.7551 22 11.9998 22ZM11.9998 3.0809C9.63429 3.0809 7.36573 4.02072 5.69323 5.69333C4.02072 7.36593 3.0808 9.63448 3.0808 11.9999C3.0808 14.3652 4.02062 16.6339 5.69323 18.3064C7.36583 19.9789 9.63439 20.9188 11.9998 20.9188C14.3651 20.9188 16.6338 19.979 18.3063 18.3064C19.9788 16.6338 20.9187 14.3652 20.9187 11.9999C20.9187 9.63448 19.9789 7.36583 18.3063 5.69333C16.6337 4.02082 14.3651 3.0809 11.9998 3.0809Z" fill="black"/>
<path d="M11.9272 16.105L8.92984 16.7618C8.83746 16.7824 8.74036 16.7622 8.66382 16.7064C8.58728 16.6504 8.53845 16.5642 8.52997 16.47L8.22983 13.4185C8.22531 13.371 8.2106 13.3248 8.18666 13.2835L6.63525 10.6482C6.58811 10.5664 6.57793 10.4684 6.60734 10.3786C6.63675 10.2891 6.70293 10.2159 6.78927 10.178L9.60001 8.94829H9.6002C9.64413 8.92944 9.68353 8.90192 9.71633 8.86723L11.7541 6.57266V6.57247C11.8177 6.50309 11.9074 6.4635 12.0015 6.4635C12.0956 6.4635 12.1853 6.50309 12.2488 6.57247L14.2866 8.86704V8.86723C14.3176 8.90342 14.3564 8.93208 14.4001 8.95093L17.2109 10.1807H17.2111C17.2961 10.2195 17.3611 10.2919 17.3904 10.3807C17.4196 10.4695 17.4105 10.5664 17.3651 10.6482L15.8111 13.2861C15.7871 13.3276 15.7722 13.3736 15.7677 13.4213L15.4651 16.4726C15.4565 16.567 15.4076 16.6532 15.3311 16.709C15.2545 16.7648 15.1576 16.7852 15.0651 16.7644L12.0677 16.105C12.0215 16.0942 11.9734 16.0942 11.9272 16.105L11.9272 16.105Z" fill="black"/>
</svg>
