<svg width="24" height="24" viewBox="0 0 24 24" fill="none" xmlns="http://www.w3.org/2000/svg">
<path d="M19.9998 4H3.99976C2.89976 4 1.99976 4.9 1.99976 6V18C1.99976 19.1 2.89976 20 3.99976 20H19.9998C21.0998 20 21.9998 19.1 21.9998 18V6C21.9998 4.9 21.0998 4 19.9998 4ZM4.99976 12H6.99976C7.54976 12 7.99976 12.45 7.99976 13C7.99976 13.55 7.54976 14 6.99976 14H4.99976C4.44976 14 3.99976 13.55 3.99976 13C3.99976 12.45 4.44976 12 4.99976 12ZM12.9998 18H4.99976C4.44976 18 3.99976 17.55 3.99976 17C3.99976 16.45 4.44976 16 4.99976 16H12.9998C13.5498 16 13.9998 16.45 13.9998 17C13.9998 17.55 13.5498 18 12.9998 18ZM18.9998 18H16.9998C16.4498 18 15.9998 17.55 15.9998 17C15.9998 16.45 16.4498 16 16.9998 16H18.9998C19.5498 16 19.9998 16.45 19.9998 17C19.9998 17.55 19.5498 18 18.9998 18ZM18.9998 14H10.9998C10.4498 14 9.99976 13.55 9.99976 13C9.99976 12.45 10.4498 12 10.9998 12H18.9998C19.5498 12 19.9998 12.45 19.9998 13C19.9998 13.55 19.5498 14 18.9998 14Z" fill="black"/>
</svg>
