<svg width="26" height="24" viewBox="0 0 26 24" fill="none" xmlns="http://www.w3.org/2000/svg">
<path d="M15.7901 8.91992H10.4478V9.31759H11.1066V11.4056H12.5748V11.8033H11.1086V13.9907H12.5767V14.3884H11.1086V16.5759H12.5767V16.9735H11.1086V18.0413C11.1307 18.7485 11.5188 19.3925 12.132 19.7398C12.7452 20.0871 13.4945 20.0871 14.1078 19.7398C14.721 19.3925 15.1091 18.7485 15.1312 18.0413V9.31767H15.7901L15.7901 8.91992Z" fill="#0095FF"/>
<path d="M13.4176 6.82887C13.4176 7.63934 12.7638 8.29641 11.9573 8.29641C11.1509 8.29641 10.4971 7.63934 10.4971 6.82887C10.4971 6.0184 11.1509 5.36133 11.9573 5.36133C12.7638 5.36133 13.4176 6.0184 13.4176 6.82887Z" fill="#0095FF"/>
<path d="M16.6332 6.18253C16.6332 6.93807 16.0237 7.55061 15.2719 7.55061C14.52 7.55061 13.9106 6.93807 13.9106 6.18253C13.9106 5.42699 14.52 4.81445 15.2719 4.81445C16.0237 4.81445 16.6332 5.42699 16.6332 6.18253Z" fill="#0095FF"/>
<path d="M9.99855 7.87312C9.99855 8.24111 9.70181 8.53935 9.33577 8.53935C8.96962 8.53935 8.67285 8.24113 8.67285 7.87312C8.67285 7.50528 8.96959 7.20703 9.33577 7.20703C9.70179 7.20703 9.99855 7.50526 9.99855 7.87312Z" fill="#0095FF"/>
<path d="M18.0001 10.5122C18.0001 11.135 17.4979 11.6398 16.8783 11.6398C16.2586 11.6398 15.7563 11.135 15.7563 10.5122C15.7563 9.88954 16.2586 9.38477 16.8783 9.38477C17.4979 9.38477 18.0001 9.88954 18.0001 10.5122Z" fill="#0095FF"/>
<path d="M14.0608 4.62238C14.0608 4.9661 13.7836 5.24475 13.4416 5.24475C13.0995 5.24475 12.8223 4.96609 12.8223 4.62238C12.8223 4.27867 13.0996 4 13.4416 4C13.7836 4 14.0608 4.27867 14.0608 4.62238Z" fill="#0095FF"/>
<path d="M9.87973 10.2864C9.87973 10.8081 9.45891 11.2311 8.93993 11.2311C8.42085 11.2311 8 10.8081 8 10.2864C8 9.76475 8.42082 9.3418 8.93993 9.3418C9.45891 9.3418 9.87973 9.76472 9.87973 10.2864Z" fill="#0095FF"/>
</svg>
