<svg width="24" height="24" viewBox="0 0 24 24" fill="none" xmlns="http://www.w3.org/2000/svg">
<path d="M16.6663 8.8C17.955 8.8 18.9997 7.72548 18.9997 6.4C18.9997 5.07452 17.955 4 16.6663 4C15.3777 4 14.333 5.07452 14.333 6.4C14.333 7.72548 15.3777 8.8 16.6663 8.8Z" stroke="#686868" stroke-width="2" stroke-linecap="round" stroke-linejoin="round"/>
<path d="M7.33309 14.4C8.62175 14.4 9.66642 13.3255 9.66642 12C9.66642 10.6745 8.62175 9.59998 7.33309 9.59998C6.04442 9.59998 4.99976 10.6745 4.99976 12C4.99976 13.3255 6.04442 14.4 7.33309 14.4Z" stroke="#686868" stroke-width="2" stroke-linecap="round" stroke-linejoin="round"/>
<path d="M16.6663 20C17.955 20 18.9997 18.9255 18.9997 17.6C18.9997 16.2745 17.955 15.2 16.6663 15.2C15.3777 15.2 14.333 16.2745 14.333 17.6C14.333 18.9255 15.3777 20 16.6663 20Z" stroke="#686868" stroke-width="2" stroke-linecap="round" stroke-linejoin="round"/>
<path d="M9.34741 13.208L14.6596 16.392" stroke="#686868" stroke-width="2" stroke-linecap="round" stroke-linejoin="round"/>
<path d="M14.6519 7.60803L9.34741 10.792" stroke="#686868" stroke-width="2" stroke-linecap="round" stroke-linejoin="round"/>
</svg>
