<svg width="24" height="24" viewBox="0 0 24 24"  xmlns="http://www.w3.org/2000/svg">
<path fill-rule="evenodd" clip-rule="evenodd" d="M7.66955 4.15414L9.10625 5.64107L8.74616 6.01426C7.632 7.16817 7.01721 8.70598 7.01721 10.3391C7.01721 11.9715 7.63159 13.5079 8.74616 14.663C9.86073 15.8183 11.3431 16.455 12.9182 16.455C14.4934 16.455 15.9755 15.8183 17.0903 14.663C17.2893 14.4569 17.6103 14.4569 17.8095 14.6634C18.0082 14.8687 18.0082 15.2021 17.8093 15.4082C16.5021 16.763 14.7655 17.509 12.9183 17.509H12.6256V18.946H16.123C16.4044 18.946 16.6315 19.1814 16.6315 19.473C16.6315 19.7646 16.4044 20 16.123 20H8.11109C7.82969 20 7.60261 19.7646 7.60261 19.473C7.60261 19.1814 7.82969 18.946 8.11109 18.946H11.6085V17.3789L11.3805 17.3255C10.1046 17.0265 8.95249 16.3687 8.02727 15.409C6.72035 14.0544 6.00024 12.2539 6.00024 10.3399C6.00024 8.69717 6.52849 7.13479 7.51254 5.86394L7.67705 5.65155L7.49093 5.45926L6.95051 4.90078C6.75149 4.69464 6.75127 4.3615 6.94965 4.15481C7.14868 3.94856 7.47006 3.94845 7.66962 4.15414L7.66955 4.15414ZM12.9828 15.5235C10.2162 15.5235 7.96545 13.1908 7.96545 10.3232C7.96545 7.45582 10.2163 5.12327 12.9828 5.12327C15.7495 5.12327 18.0002 7.45596 18.0002 10.3232C18.0002 13.1906 15.7494 15.5235 12.9828 15.5235Z" fill="#04D387"/>
</svg>
