<svg width="24" height="24" viewBox="0 0 24 24" fill="none" xmlns="http://www.w3.org/2000/svg">
<path d="M14.9516 5.99973H16.5795C16.9245 5.99372 17.2598 6.11261 17.5217 6.33381C17.7835 6.55502 17.9537 6.86315 18 7.19971V11.3996C17.9537 11.7362 17.7835 12.0443 17.5217 12.2655C17.2598 12.4867 16.9245 12.6056 16.5795 12.5996H14.9516M10.6839 13.7996V16.1995C10.6839 16.6769 10.8766 17.1348 11.2196 17.4723C11.5626 17.8099 12.0278 17.9995 12.5129 17.9995L14.9516 12.5996V5.99973H8.07451C7.78044 5.99646 7.49509 6.09788 7.27101 6.28532C7.04694 6.47276 6.89925 6.73357 6.85516 7.01971L6.01381 12.4196C5.98728 12.5916 5.99907 12.7672 6.04835 12.9343C6.09763 13.1013 6.18323 13.2558 6.29922 13.3871C6.41521 13.5184 6.55881 13.6232 6.72007 13.6945C6.88134 13.7657 7.05641 13.8016 7.23316 13.7996H10.6839Z" stroke="#171717" stroke-linecap="round" stroke-linejoin="round"/>
</svg>
