<svg width="24" height="24" viewBox="0 0 24 24" fill="none" xmlns="http://www.w3.org/2000/svg">
<path d="M12 7.6C14.7564 7.6 17.2145 9.304 18.4145 12C17.2145 14.696 14.7564 16.4 12 16.4C9.24364 16.4 6.78545 14.696 5.58545 12C6.78545 9.304 9.24364 7.6 12 7.6ZM12 6C8.36364 6 5.25818 8.488 4 12C5.25818 15.512 8.36364 18 12 18C15.6364 18 18.7418 15.512 20 12C18.7418 8.488 15.6364 6 12 6ZM12 10C13.0036 10 13.8182 10.896 13.8182 12C13.8182 13.104 13.0036 14 12 14C10.9964 14 10.1818 13.104 10.1818 12C10.1818 10.896 10.9964 10 12 10ZM12 8.4C10.1964 8.4 8.72727 10.016 8.72727 12C8.72727 13.984 10.1964 15.6 12 15.6C13.8036 15.6 15.2727 13.984 15.2727 12C15.2727 10.016 13.8036 8.4 12 8.4Z" fill="black"/>
</svg>
